<svg width="79" height="75" viewBox="0 0 79 75" fill="none" xmlns="http://www.w3.org/2000/svg">
<path d="M49.1125 51.1705C52.1125 51.1705 52.1125 51.1687 52.1125 51.1668L52.1125 51.1628L52.1125 51.1543L52.1123 51.1349L52.1116 51.0868C52.1109 51.0507 52.1096 51.0064 52.1074 50.9544C52.1031 50.8506 52.0952 50.7157 52.0808 50.5541C52.0521 50.2319 51.9971 49.7972 51.8909 49.2863C51.6806 48.2744 51.2566 46.9011 50.3875 45.5072C48.5315 42.5304 44.9924 40.0184 38.9468 40.0184C32.9011 40.0184 29.3621 42.5304 27.5061 45.5072C26.637 46.9011 26.213 48.2744 26.0027 49.2863C25.8965 49.7972 25.8415 50.2319 25.8128 50.5541C25.7984 50.7157 25.7905 50.8506 25.7861 50.9544C25.784 51.0064 25.7827 51.0507 25.782 51.0868L25.7813 51.135L25.7811 51.1543L25.7811 51.1628L25.7811 51.1668C25.7811 51.1687 25.7811 51.1705 28.7627 51.1705H25.7811V71C25.7811 71.5523 25.3334 72 24.7811 72H5.62964C5.07735 72 4.62964 71.5523 4.62964 71V37.8786C4.62964 37.3332 4.85235 36.8115 5.2462 36.4342L38.9574 4.14398L73.026 36.4423C73.4244 36.82 73.65 37.3448 73.65 37.8938V71C73.65 71.5523 73.2023 72 72.65 72H53.1125C52.5602 72 52.1125 71.5523 52.1125 71V51.1705H49.1125Z" stroke="white" stroke-width="6"/>
</svg>
