<svg width="83" height="79" viewBox="0 0 83 79" fill="none" xmlns="http://www.w3.org/2000/svg">
<path d="M51.1247 52.7846C54.1247 52.7846 54.1247 52.7827 54.1247 52.7809L54.1247 52.7769L54.1247 52.7684L54.1245 52.7491L54.1238 52.7011C54.1231 52.665 54.1218 52.6209 54.1197 52.5692C54.1154 52.4658 54.1075 52.3316 54.0932 52.1708C54.0646 51.8503 54.0099 51.418 53.9043 50.91C53.6952 49.9038 53.2736 48.5382 52.4093 47.152C50.5629 44.1906 47.043 41.6939 41.0357 41.6939C35.0284 41.6939 31.5085 44.1906 29.6621 47.152C28.7978 48.5382 28.3762 49.9038 28.1671 50.91C28.0615 51.418 28.0067 51.8503 27.9782 52.1708C27.9639 52.3316 27.956 52.4658 27.9517 52.5692C27.9496 52.6209 27.9483 52.665 27.9476 52.7011L27.9468 52.7491L27.9467 52.7684L27.9467 52.7769L27.9467 52.7809C27.9467 52.7827 27.9467 52.7846 30.9283 52.7846H27.9467V72.4343C27.9467 72.9866 27.4989 73.4343 26.9467 73.4343H8C7.44772 73.4343 7 72.9866 7 72.4343V39.609C7 39.0636 7.22271 38.5419 7.61655 38.1646L41.0463 6.14398L74.8305 38.1728C75.2289 38.5504 75.4545 39.0752 75.4545 39.6242V72.4343C75.4545 72.9866 75.0068 73.4343 74.4545 73.4343H55.1247C54.5724 73.4343 54.1247 72.9866 54.1247 72.4343V52.7846H51.1247Z" stroke="white" stroke-width="6"/>
</svg>
