<svg width="79" height="75" viewBox="0 0 79 75" fill="none" xmlns="http://www.w3.org/2000/svg">
<path d="M2.92483 34.5887L36.9712 1.9775C38.1271 0.870277 39.9487 0.865593 41.1103 1.96686L75.8305 34.883C76.2289 35.2607 76.4545 35.7855 76.4545 36.3344V70.4343C76.4545 72.6435 74.6637 74.4343 72.4545 74.4343H53.1247C50.9156 74.4343 49.1247 72.6435 49.1247 70.4343V50.7846C49.1247 50.7846 49.1247 42.6939 39.0357 42.6939C28.9466 42.6939 28.9467 50.7846 28.9467 50.7846V70.4343C28.9467 72.6435 27.1558 74.4343 24.9467 74.4343H6C3.79086 74.4343 2 72.6435 2 70.4343V36.7552C2 35.9372 2.33406 35.1546 2.92483 34.5887Z" fill="white"/>
</svg>
