<svg width="215" height="215" viewBox="0 0 215 215" fill="none" xmlns="http://www.w3.org/2000/svg">
<path fill-rule="evenodd" clip-rule="evenodd" d="M127.914 19.2805C124.597 17.9167 120.391 17.9167 111.979 17.9167C103.567 17.9167 99.3613 17.9167 96.0441 19.2805C91.6204 21.0989 88.106 24.5869 86.2737 28.9769C85.4373 30.981 85.11 33.3116 84.9819 36.7111C84.7936 41.7071 82.212 46.3315 77.8494 48.8312C73.4868 51.3309 68.1607 51.2375 63.7071 48.9014C60.6764 47.3116 58.479 46.4276 56.312 46.1445C51.565 45.5243 46.7641 46.8009 42.9656 49.6937C40.1167 51.8632 38.0137 55.478 33.8078 62.7077C29.602 69.9374 27.4991 73.5522 27.0304 77.0856C26.4054 81.7967 27.6918 86.5613 30.6066 90.3313C31.937 92.0522 33.8067 93.4981 36.7085 95.3077C40.9746 97.9683 43.7195 102.5 43.7192 107.5C43.719 112.5 40.9741 117.031 36.7085 119.69C33.8062 121.501 31.9362 122.948 30.6057 124.669C27.6909 128.438 26.4046 133.202 27.0295 137.914C27.4982 141.447 29.6012 145.062 33.8069 152.292C38.0128 159.521 40.1158 163.137 42.9647 165.305C46.7632 168.198 51.5641 169.475 56.3111 168.855C58.478 168.572 60.6752 167.687 63.7056 166.098C68.1596 163.762 73.4861 163.669 77.849 166.168C82.2118 168.668 84.7936 173.293 84.9819 178.29C85.11 181.688 85.4373 184.019 86.2737 186.023C88.106 190.413 91.6204 193.901 96.0441 195.72C99.3613 197.083 103.567 197.083 111.979 197.083C120.391 197.083 124.597 197.083 127.914 195.72C132.338 193.901 135.852 190.413 137.684 186.023C138.521 184.019 138.849 181.688 138.977 178.289C139.165 173.293 141.746 168.668 146.109 166.168C150.471 163.668 155.798 163.762 160.252 166.098C163.283 167.687 165.479 168.571 167.646 168.854C172.393 169.475 177.194 168.198 180.992 165.305C183.842 163.136 185.945 159.521 190.15 152.291C194.356 145.061 196.459 141.447 196.928 137.914C197.553 133.202 196.266 128.437 193.352 124.668C192.021 122.947 190.151 121.5 187.249 119.69C182.984 117.031 180.239 112.499 180.239 107.499C180.239 102.499 182.984 97.9692 187.249 95.3095C190.152 93.499 192.022 92.0531 193.353 90.3313C196.267 86.5619 197.554 81.7974 196.929 77.0862C196.46 73.5528 194.357 69.938 190.151 62.7083C185.945 55.4787 183.843 51.8638 180.993 49.6943C177.195 46.8015 172.394 45.5249 167.647 46.1452C165.48 46.4283 163.283 47.3122 160.253 48.9017C155.799 51.238 150.472 51.3314 146.109 48.8315C141.747 46.3317 139.165 41.7069 138.976 36.7107C138.848 33.3114 138.521 30.9809 137.684 28.9769C135.852 24.5869 132.338 21.0989 127.914 19.2805ZM111.979 134.375C126.935 134.375 139.058 122.343 139.058 107.5C139.058 92.6569 126.935 80.625 111.979 80.625C97.0232 80.625 84.8995 92.6569 84.8995 107.5C84.8995 122.343 97.0232 134.375 111.979 134.375Z" fill="white"/>
</svg>
